<svg width="112" height="29" viewBox="0 0 112 29" fill="none" xmlns="http://www.w3.org/2000/svg">
<path d="M10.084 0.089435C16.4277 0.200521 19.8698 5.21965 19.8847 9.88649L19.917 19.9395C19.9201 20.229 19.8651 20.5161 19.7554 20.7839C19.6456 21.0517 19.4833 21.2948 19.2781 21.4988C19.0728 21.7028 18.8288 21.8635 18.5604 21.9715C18.2919 22.0795 18.0046 22.1326 17.7154 22.1276C16.4973 22.1063 15.5045 21.0911 15.5004 19.8624L15.4686 9.8094C15.4629 8.02219 14.334 4.61637 10.1027 4.54319C5.10476 4.45591 4.57753 8.73226 4.58583 10.5776L4.63626 26.3711C4.63932 26.6606 4.58435 26.9477 4.47461 27.2155C4.36487 27.4834 4.20258 27.7265 3.99733 27.9305C3.79208 28.1346 3.54804 28.2953 3.27963 28.4034C3.01121 28.5115 2.72387 28.5646 2.43459 28.5596C1.21614 28.5383 0.223266 27.5227 0.219204 26.294L0.165655 10.5004C0.16129 9.10776 0.390142 6.41928 1.95771 4.03289C3.16668 2.19056 5.56116 0.0127159 10.084 0.089435Z" fill="white"/>
<path d="M25.2959 0.354343C26.5143 0.375658 27.5072 1.39127 27.5112 2.61997L27.5617 18.4135C27.566 19.8066 27.3367 22.4951 25.7701 24.8811C24.5571 26.7229 22.1612 28.9079 17.6401 28.8285C11.2983 28.7183 7.85343 23.6987 7.83895 19.0319L7.80673 8.97439C7.80361 8.68497 7.85852 8.39787 7.96821 8.13005C8.07791 7.86223 8.24016 7.61913 8.44538 7.41514C8.6506 7.21114 8.89462 7.05039 9.16301 6.94238C9.43139 6.83437 9.7187 6.7813 10.0079 6.78631C11.2268 6.80763 12.2197 7.82324 12.2238 9.05149L12.2556 19.1045C12.2613 20.8917 13.3893 24.2975 17.6215 24.3707C22.619 24.458 23.1462 20.1817 23.1406 18.3359L23.0902 2.54283C23.0906 1.31417 24.0729 0.332987 25.2959 0.354343Z" fill="white"/>
<path d="M91.5262 16.4321C91.4469 19.4726 89.238 21.5279 86.3842 21.5279C83.3796 21.5279 81.2866 19.411 81.246 16.3832C81.2085 13.652 83.1568 11.255 86.4401 11.2632C89.3145 11.2702 91.5389 13.4437 91.5262 16.4321ZM88.707 16.3089C88.7299 15.8611 88.5801 15.3936 88.3331 14.9535C87.6539 13.7422 85.9398 13.4329 84.9425 14.359C84.0887 15.1523 83.8151 16.1202 84.1807 17.2432C84.4747 18.1527 85.4402 18.9009 86.3188 18.9092C87.6615 18.9219 88.7045 17.8148 88.7045 16.3089H88.707ZM61.8751 17.0882C62.0998 17.8148 62.5474 18.2702 63.1955 18.5548C64.0424 18.9263 64.8543 18.9327 65.6383 18.389C65.8576 18.2401 66.0866 18.1063 66.3239 17.9882C67.106 17.5913 68.0532 18.1654 68.1084 19.0426C68.1528 19.7451 67.7478 20.1636 67.2412 20.5238C66.5626 21.0046 65.7811 21.2072 64.9692 21.3012C64.1573 21.3952 63.365 21.3647 62.5893 21.1176C61.2777 20.6978 60.3503 19.8327 59.7104 18.6234C59.2184 17.6922 59.1104 16.6989 59.2285 15.6833C59.4825 13.4844 61.1635 11.7072 63.3237 11.4055C64.6848 11.2149 65.9608 11.4449 67.0825 12.2814C67.9713 12.9457 68.5966 13.8019 68.8073 14.9134C68.8956 15.3784 68.9425 15.8567 68.6804 16.2917C68.3629 16.8234 67.8468 17.0539 67.2666 17.0666C65.5647 17.0958 63.8614 17.0844 62.1589 17.0882H61.8751ZM61.8751 15.1974H66.2287C66.0319 14.6892 65.7799 14.27 65.3133 14.0611C64.5947 13.739 63.8449 13.6959 63.1016 13.9849C62.529 14.2059 62.1614 14.6441 61.8732 15.1974H61.8751ZM41.8015 17.7659C41.8015 18.5846 41.83 19.4053 41.7919 20.2227C41.7621 20.8579 42.5245 21.5006 43.1035 21.493C43.8538 21.4854 44.4944 20.8953 44.5001 20.1503C44.5147 18.6939 44.5102 17.2368 44.5223 15.7804C44.5225 15.5497 44.5491 15.3198 44.6016 15.0951C44.787 14.345 45.4199 13.821 46.1373 13.8C46.4911 13.7917 46.838 13.8982 47.1263 14.1036C47.4145 14.309 47.6286 14.6022 47.7364 14.9395C47.814 15.1827 47.8544 15.4362 47.8564 15.6915C47.8678 17.1644 47.8614 18.6374 47.8659 20.1109C47.8614 20.2507 47.8794 20.3903 47.9192 20.5244C47.9769 20.6989 48.0689 20.86 48.19 20.9982C48.311 21.1364 48.4585 21.2489 48.6238 21.3289C48.7891 21.409 48.9688 21.4551 49.1522 21.4644C49.3357 21.4737 49.5191 21.4461 49.6916 21.3831C50.3036 21.1729 50.6058 20.7759 50.6064 20.1281C50.6064 18.5148 50.6166 16.9008 50.5905 15.2876C50.5747 14.3183 50.2096 13.4526 49.571 12.7355C48.2925 11.2969 46.6508 11.0288 44.8657 11.4328C44.1452 11.596 43.5326 12.0044 43.0044 12.5539C42.2729 13.298 41.8483 14.2906 41.8154 15.3339C41.7792 16.1431 41.8084 16.9555 41.8084 17.7666L41.8015 17.7659ZM97.2917 11.3058C96.208 11.342 95.2349 11.6869 94.3988 12.3805C92.5839 13.8832 92.0804 16.5668 93.0987 18.652C94.0306 20.5612 95.6443 21.4066 97.7126 21.486C98.4642 21.5152 99.1688 21.3025 99.8481 21.0224C100.527 20.7423 101.161 20.3593 101.553 19.6847C101.708 19.4239 101.768 19.1166 101.72 18.8165C101.673 18.5165 101.521 18.2426 101.292 18.0429C100.859 17.6573 100.093 17.6211 99.6335 17.9692C99.4158 18.1337 99.2146 18.3198 98.9911 18.4773C98.3455 18.9283 97.6415 19.0737 96.9063 18.7472C95.624 18.1756 95.0317 16.7783 95.5097 15.4559C96.05 13.9645 97.79 13.236 99.1644 14.3634C99.3542 14.523 99.5546 14.6694 99.7643 14.8017C100.272 15.1135 100.733 15.0843 101.189 14.7318C101.661 14.3672 101.86 13.8356 101.679 13.3065C101.488 12.7577 101.075 12.3881 100.604 12.0788C99.7262 11.502 98.7556 11.2613 97.7119 11.2893C97.5723 11.2943 97.4301 11.3013 97.2917 11.3058ZM55.6037 10.1066C55.5282 9.36411 54.9225 8.91633 54.1265 8.96714C53.4917 9.00779 52.9394 9.59721 52.9203 10.2552C52.9114 10.5614 52.8848 10.8662 52.8854 11.1718C52.8854 11.3699 52.8143 11.4258 52.6181 11.4068C51.8983 11.335 51.1796 12.1442 51.3111 12.9311C51.4221 13.5961 51.9592 14.0325 52.6359 14.0268C52.8499 14.0268 52.9222 14.0827 52.9197 14.3043C52.9095 15.13 52.893 15.9602 52.9292 16.7865C52.9654 17.6325 53.1285 18.4595 53.5494 19.2128C54.2281 20.4266 55.292 21.103 56.622 21.3914C57.1044 21.4962 57.5939 21.5953 58.082 21.3793C58.6286 21.1367 58.9613 20.5479 58.8521 19.9921C58.7251 19.3532 58.2249 18.9168 57.6053 18.9073C56.634 18.8927 55.9135 18.2613 55.7561 17.3042C55.5821 16.2428 55.6443 15.1751 55.6513 14.1087C55.6513 14.0877 55.6723 14.0668 55.6926 14.0299C55.8195 14.0299 55.951 14.0299 56.0824 14.0299C56.6194 14.0198 57.1571 14.0236 57.6929 13.9918C58.3436 13.9537 58.7835 13.5021 58.866 12.8276C58.9295 12.2953 58.5328 11.638 57.9862 11.5084C57.5837 11.4131 57.1546 11.4226 56.7362 11.4042C56.3839 11.389 56.0303 11.4042 55.6126 11.4042C55.6113 10.9482 55.6462 10.522 55.6037 10.1066ZM79.8399 9.22437C79.8399 8.81152 79.7465 8.4425 79.4939 8.11222C78.953 7.40466 77.7799 7.45992 77.3031 8.2094C77.0816 8.55556 77.0371 8.9322 77.0365 9.32473C77.0365 10.9552 77.0365 18.1534 77.0549 20.1223C77.0619 20.8407 77.6027 21.4073 78.3525 21.4739C78.6734 21.5008 78.9932 21.4104 79.2527 21.2196C79.5122 21.0289 79.694 20.7505 79.7643 20.4361C79.8087 20.2433 79.83 20.0458 79.8278 19.848C79.8297 18.0873 79.8329 11.0034 79.8399 9.22437ZM105.867 14.5559C105.867 12.6955 105.874 10.8345 105.867 8.97349C105.863 8.1389 105.137 7.52788 104.309 7.6295C103.604 7.71588 103.103 8.27355 103.09 9.02684C103.073 10.0107 103.074 10.9958 103.075 11.9797C103.075 14.6842 103.075 17.388 103.091 20.0925C103.094 20.8242 103.684 21.4263 104.409 21.4898C105.099 21.5533 105.851 20.8909 105.855 20.1859C105.866 18.309 105.859 16.4315 105.859 14.5539L105.867 14.5559ZM111.661 19.1925C110.899 18.2766 110.137 17.3626 109.365 16.4613C109.221 16.2924 109.217 16.1806 109.354 16.0167C109.784 15.5156 110.213 15.0132 110.629 14.5C111.018 14.0191 111.433 13.5517 111.755 13.0283C112.128 12.4236 111.755 11.5783 111.083 11.3521C110.43 11.1324 109.926 11.2918 109.459 11.8533C108.482 13.027 107.491 14.1887 106.524 15.3739C106.017 15.9983 105.97 16.5134 106.398 17.1879C106.478 17.3129 106.566 17.4325 106.662 17.5462C107.283 18.2867 107.905 19.0259 108.529 19.7635C108.91 20.2081 109.278 20.6667 109.678 21.0935C110.064 21.5038 110.588 21.6016 111.085 21.3698C111.61 21.1265 111.974 20.7486 112 20.1312C112.004 19.7879 111.883 19.4548 111.658 19.195L111.661 19.1925ZM69.99 17.9368C69.99 18.6729 70.0122 19.4103 69.9817 20.1452C69.9633 20.5854 70.1633 20.8921 70.4591 21.1545C70.5983 21.2857 70.7667 21.3818 70.9504 21.4349C71.1341 21.4879 71.3278 21.4963 71.5155 21.4593C72.3026 21.3056 72.6924 20.8471 72.7064 20.0201C72.7248 18.9117 72.7121 17.8034 72.7204 16.6944C72.7184 16.3474 72.735 16.0006 72.7699 15.6553C72.8384 15.064 73.0416 14.5336 73.545 14.1608C73.9081 13.8908 74.3322 13.8394 74.7607 13.7994C75.4164 13.7359 75.9275 13.2011 75.9281 12.5735C75.9281 11.8622 75.4507 11.3032 74.7657 11.2689C73.9786 11.2276 73.2066 11.354 72.5058 11.7174C70.8781 12.5602 70.0751 13.9404 69.9995 15.7531C69.9697 16.4797 69.9944 17.2089 69.9944 17.9368H69.99ZM37.1952 16.2479C37.1952 17.4471 37.1952 18.6462 37.1952 19.8454C37.1881 20.1024 37.2373 20.3578 37.3394 20.5938C37.4415 20.8297 37.594 21.0404 37.7862 21.211C37.9091 21.3291 38.0585 21.4159 38.2219 21.4641C38.3853 21.5123 38.5579 21.5204 38.7251 21.4879C39.4006 21.3609 39.9421 20.8051 39.951 20.0982C39.951 19.8499 39.9763 19.6022 39.977 19.3544C39.9808 17.3194 39.9814 15.2856 39.9789 13.2532C39.9788 12.9553 39.955 12.658 39.9078 12.3639C39.7884 11.6322 39.1765 11.2041 38.3607 11.2626C37.783 11.3039 37.2028 11.927 37.1971 12.5545C37.185 13.786 37.1933 15.0182 37.1933 16.2498L37.1952 16.2479ZM38.5366 7.25159C38.1222 7.25322 37.725 7.41774 37.4307 7.70968C37.1365 8.00161 36.9687 8.39757 36.9635 8.81216C36.9527 9.61118 37.7062 10.3645 38.5042 10.395C39.4171 10.4274 40.1808 9.62262 40.123 8.8509C40.1611 7.8156 39.3364 7.2573 38.5366 7.25159Z" fill="white"/>
</svg>
