<svg width="365" height="365" viewBox="0 0 365 365" fill="none" xmlns="http://www.w3.org/2000/svg">
<g filter="url(#filter0_d_622_766)">
<path fill-rule="evenodd" clip-rule="evenodd" d="M360 178.5C360 276.531 280.531 356 182.5 356C84.4695 356 5 276.531 5 178.5C5 80.4695 84.4695 1 182.5 1C280.531 1 360 80.4695 360 178.5ZM182.5 323.231C262.433 323.231 327.231 258.433 327.231 178.5C327.231 98.5674 262.433 33.7692 182.5 33.7692C102.567 33.7692 37.7692 98.5674 37.7692 178.5C37.7692 258.433 102.567 323.231 182.5 323.231Z" fill="url(#paint0_linear_622_766)"/>
<path d="M182.5 356.5C280.807 356.5 360.5 276.807 360.5 178.5C360.5 80.1933 280.807 0.5 182.5 0.5C84.1933 0.5 4.5 80.1933 4.5 178.5C4.5 276.807 84.1933 356.5 182.5 356.5ZM326.731 178.5C326.731 258.156 262.156 322.731 182.5 322.731C102.844 322.731 38.2692 258.156 38.2692 178.5C38.2692 98.8436 102.844 34.2692 182.5 34.2692C262.156 34.2692 326.731 98.8436 326.731 178.5Z" stroke="black"/>
</g>
<defs>
<filter id="filter0_d_622_766" x="0" y="0" width="365" height="365" filterUnits="userSpaceOnUse" color-interpolation-filters="sRGB">
<feFlood flood-opacity="0" result="BackgroundImageFix"/>
<feColorMatrix in="SourceAlpha" type="matrix" values="0 0 0 0 0 0 0 0 0 0 0 0 0 0 0 0 0 0 127 0" result="hardAlpha"/>
<feOffset dy="4"/>
<feGaussianBlur stdDeviation="2"/>
<feComposite in2="hardAlpha" operator="out"/>
<feColorMatrix type="matrix" values="0 0 0 0 0 0 0 0 0 0 0 0 0 0 0 0 0 0 0.25 0"/>
<feBlend mode="normal" in2="BackgroundImageFix" result="effect1_dropShadow_622_766"/>
<feBlend mode="normal" in="SourceGraphic" in2="effect1_dropShadow_622_766" result="shape"/>
</filter>
<linearGradient id="paint0_linear_622_766" x1="34.5" y1="100" x2="182.5" y2="356" gradientUnits="userSpaceOnUse">
<stop stop-color="#01ADEF"/>
<stop offset="0.479167" stop-color="#9336E5"/>
<stop offset="1" stop-color="#FEAB2A"/>
</linearGradient>
</defs>
</svg>
